<?xml version="1.0" encoding="utf-8"?>
<!-- Svg Vector Icons : http://www.onlinewebfonts.com/icon -->
<!DOCTYPE svg PUBLIC "-//W3C//DTD SVG 1.1//EN" "http://www.w3.org/Graphics/SVG/1.1/DTD/svg11.dtd">
<svg version="1.1" xmlns="http://www.w3.org/2000/svg" xmlns:xlink="http://www.w3.org/1999/xlink" x="0px" y="0px" viewBox="0 0 256 256" enable-background="new 0 0 256 256" xml:space="preserve">
<metadata> Svg Vector Icons : http://www.onlinewebfonts.com/icon </metadata>
<g><g><g><path d="M97.6,28.3c-1,1-2.3,2.9-3.2,4.1c-0.8,1.1-1.5,2.1-1.5,2.1S92,33.4,91,32.1c-1-1.4-2.1-2.4-2.5-2.4c-0.7,0-2.5,1.9-3.8,4c-0.4,0.7-1,0.8-3.3,0.3c-2.6-0.5-3.3-0.3-8.2,1.4c-3,1.1-7.1,2.2-9.1,2.4c-2,0.2-4.1,0.8-4.5,1.1c-1.7,1.4-2.8,4.7-3.5,10.1c-1,8.5-0.4,9.7,5.4,11c1.6,0.3,3.4,0.8,3.9,0.9c1.6,0.4,5.2,12,4.6,14.5c-0.2,0.8-2,3.3-4,5.7c-3.8,4.6-6.6,9.4-6.6,11.3c0,0.6-0.7,1.7-1.4,2.4c-0.8,0.7-2.3,2.5-3.4,4l-2,2.7l-1.8-2.1c-1-1.1-3.6-4.6-5.7-7.6C43,89,39.3,84.1,37,81.1c-4-5.1-4.2-5.5-4.2-8s-0.2-2.9-2.4-5.1c-1.4-1.4-2.4-2.6-2.4-2.9c0-1.7-1.1-6.9-1.6-7.5c-0.3-0.4-1.3-0.9-2.2-1.1c-0.9-0.2-2.2-0.8-2.9-1.4c-2-1.5-4.5-2.2-6.1-1.6c-1.7,0.7-4.6,6.6-5,10.1c-0.3,3.3,0.7,5.4,3.9,7.9c3.5,2.7,5.6,5.5,6.4,8.3c0.3,1.3,2.6,6.4,5.1,11.5c7.2,14.6,16.6,34.4,16.6,35c0,1.2,9.1,9,15.2,13.1l6.6,4.4l3.3,6.7c3.7,7.3,10.4,17.4,13.9,20.8c1.2,1.2,2.5,2.8,2.9,3.4c0.8,1.6,0.5,7.5-1.3,21.4c-1.1,8.8-1.4,9.9-2.8,11.9c-4.3,6.1-4.6,6.7-4.5,8.6l0.2,1.9l6.3,0.2c10.4,0.3,11.3-0.6,13.1-12.2c0.9-5.7,1.8-9.7,3.3-13.5c1.1-3,2.3-6.9,2.7-8.5c0.4-1.7,1-3.4,1.4-4c0.7-0.9,0.8-0.9,1.8,0.4c0.9,1.1,1.1,2.6,1.5,7.2c0.2,3.2,0.7,6.4,1,7.1c0.3,0.7,2.1,2.4,3.9,3.9c1.8,1.4,4,3.7,4.8,5.1l1.6,2.5l-1.5,0.4c-0.9,0.2-3.4,0.5-5.6,0.8c-5.3,0.4-9.4,2.2-10.6,4.8c-1.3,2.8-1.1,3.5,1.4,4.7c2,1,2.8,1.1,7.2,0.8c2.7-0.2,16.5-0.4,30.7-0.6c33.4-0.3,34.8-0.4,33.2-3.5c-0.3-0.7-0.5-1.3-0.4-1.4c0.1-0.1,2.9,0.1,6.3,0.4c4.3,0.4,9.9,0.4,18.8,0c15-0.7,33.7,0.4,35.4,2c1.5,1.5-3.2,3.9-10.1,5.2c-4.4,0.9-7,2.2-7,3.5c0,1,2.9,3.9,4.9,4.9c3.3,1.7,11.3,1.1,15.4-1.2c4.9-2.8,11.1-9.4,11.1-11.9c0-2-2.5-4.5-7-6.7c-4.5-2.2-8.4-2.8-26.7-3.5c-31.9-1.4-39.5-2.1-41.8-3.9c-1.5-1.1-1.6-1.6-1.6-4.3c-0.1-1.6,0.3-5.9,0.8-9.5c1.2-9.4,1-13.9-1.1-32.9c-2-17.8-3-23.2-5.8-29.6c-1.4-3.3-2.3-4.6-6.9-9c-7.4-7.2-12.3-11.3-15.8-12.8c-1.6-0.8-6.6-2.4-11.1-3.8c-4.5-1.3-8.5-2.7-9.1-2.9c-1.5-0.8-2.6-2.3-3.6-4.9c-0.5-1.4-1.8-3.8-3-5.4c-3.2-4.6-3.4-5.9-2.3-16.2l0.9-8.9l-1.5-4.7c-0.9-2.6-2.3-5.7-3.4-7c-1.7-2.3-1.8-2.6-1.8-7.5c0-5.3-1.3-13.7-2.3-14.9C101.7,25.7,99.4,26.3,97.6,28.3z"/></g></g></g>
</svg>